<?xml version="1.0" encoding="utf-8"?>
<!-- Generator: Adobe Illustrator 27.5.0, SVG Export Plug-In . SVG Version: 6.00 Build 0)  -->
<svg version="1.1" id="Layer_1" xmlns="http://www.w3.org/2000/svg" xmlns:xlink="http://www.w3.org/1999/xlink" x="0px" y="0px"
	 viewBox="0 0 4000 4000" style="enable-background:new 0 0 4000 4000;" xml:space="preserve">
<g>
	<rect x="-0.001" style="fill-rule:evenodd;clip-rule:evenodd;fill:#FFFFFF;" width="4000.001" height="4000"/>
	<g>
		<defs>
			<polygon id="SVGID_1_" points="801.823,3351.764 1337.107,3351.764 1520.16,2668.601 1301.635,2293.157 984.874,2668.601 			"/>
		</defs>
		<clipPath id="SVGID_00000121242141031044462810000007597410336367478664_">
			<use xlink:href="#SVGID_1_"  style="overflow:visible;"/>
		</clipPath>
		
			<linearGradient id="SVGID_00000142151779112458200450000014952950898531410328_" gradientUnits="userSpaceOnUse" x1="715.3978" y1="4830.6606" x2="2174.2305" y2="-1744.0057">
			<stop  offset="0" style="stop-color:#0000FF"/>
			<stop  offset="1" style="stop-color:#00FFFF"/>
		</linearGradient>
		
			<rect x="801.823" y="2293.157" style="clip-path:url(#SVGID_00000121242141031044462810000007597410336367478664_);fill:url(#SVGID_00000142151779112458200450000014952950898531410328_);" width="718.337" height="1058.606"/>
	</g>
	<g>
		<defs>
			<path id="SVGID_00000033350368034367660460000001151370786653814429_" d="M2261.035,648.232h308.621
				c223.663,0,438.01,80.423,584.641,253.597c171.09,202.063,202.026,472.29,135.052,722.253l-56.362,210.345
				c-138.633,517.413-671.693,953.961-1212.71,953.961h-459.221l16.551-61.767h442.671c512.765,0,1021.583-417.538,1153.05-908.181
				l56.356-210.345c61.731-230.377,35.5-479.716-122.526-666.35c-134.802-159.208-332.145-231.747-537.502-231.747h-308.621
				c-457.511,0-911.134,372.123-1028.438,809.905L898.215,2767.842l-156.453,583.921h-63.951l495.127-1847.843
				C1297.426,1039.318,1775.306,648.232,2261.035,648.232"/>
		</defs>
		<clipPath id="SVGID_00000008142158296219511800000017142545133999431318_">
			<use xlink:href="#SVGID_00000033350368034367660460000001151370786653814429_"  style="overflow:visible;"/>
		</clipPath>
		
			<linearGradient id="SVGID_00000105417297755483834280000004517583659921990568_" gradientUnits="userSpaceOnUse" x1="791.4167" y1="6835.0273" x2="2708.418" y2="-727.2889">
			<stop  offset="0" style="stop-color:#0000FF"/>
			<stop  offset="1" style="stop-color:#00FFFF"/>
		</linearGradient>
		
			<rect x="677.811" y="648.232" style="clip-path:url(#SVGID_00000008142158296219511800000017142545133999431318_);fill:url(#SVGID_00000105417297755483834280000004517583659921990568_);" width="2678.513" height="2703.532"/>
	</g>
	<path style="opacity:0.2;fill-rule:evenodd;clip-rule:evenodd;fill:#FFFFFF;" d="M2261.035,648.232h308.621
		c223.663,0,438.01,80.423,584.641,253.597c171.09,202.063,202.026,472.29,135.052,722.253l-56.362,210.345
		c-8.061,30.09-17.513,59.896-28.167,89.366c-21.773-0.77-43.066-2.583-63.79-5.612c12.435-32.835,23.283-66.108,32.298-99.742
		l56.356-210.345c61.731-230.377,35.5-479.716-122.526-666.35c-134.802-159.208-332.145-231.747-537.502-231.747h-308.621
		c-71.869,0-143.642,9.198-214.03,26.377c-20.689-17.868-40.998-33.643-60.873-47.557
		C2075.88,662.528,2168.309,648.232,2261.035,648.232"/>
	<g>
		<defs>
			<path id="SVGID_00000022540754769625029760000011764412362580344248_" d="M2261.035,768.018h308.621
				c453.786,0,725.58,371.278,603.99,825.061l-56.364,210.345c-127.502,475.848-621.155,865.176-1097.004,865.176H984.874
				l303.77-1133.678C1401.661,1113.123,1839.236,768.018,2261.035,768.018"/>
		</defs>
		<clipPath id="SVGID_00000114772105732658656540000000892856476949743282_">
			<use xlink:href="#SVGID_00000022540754769625029760000011764412362580344248_"  style="overflow:visible;"/>
		</clipPath>
		
			<linearGradient id="SVGID_00000150073786192637615370000002852539077829022875_" gradientUnits="userSpaceOnUse" x1="1225.4607" y1="5840.2036" x2="2684.2935" y2="-734.4633">
			<stop  offset="0" style="stop-color:#0000FF"/>
			<stop  offset="1" style="stop-color:#00FFFF"/>
		</linearGradient>
		
			<rect x="984.874" y="768.018" style="clip-path:url(#SVGID_00000114772105732658656540000000892856476949743282_);fill:url(#SVGID_00000150073786192637615370000002852539077829022875_);" width="2310.362" height="1900.583"/>
	</g>
	<path style="opacity:0.2;fill-rule:evenodd;clip-rule:evenodd;fill:#FFFFFF;" d="M2261.035,768.018h308.621
		c453.786,0,725.58,371.278,603.99,825.061l-56.364,210.345c-9.344,34.885-20.717,69.293-33.85,103.13
		c-362.329-92.5-565.682-531.983-824.168-921.138c-54.883-82.63-108.793-148.463-160.785-200.858
		C2152.446,773.745,2206.871,768.018,2261.035,768.018"/>
	<polygon style="opacity:0.3;fill-rule:evenodd;clip-rule:evenodd;fill:#020C6A;" points="952.776,2788.387 1488.065,2788.387 
		1520.16,2668.601 984.874,2668.601 	"/>
	<path style="opacity:0.3;fill-rule:evenodd;clip-rule:evenodd;fill:#0049E7;" d="M1188.107,1685.943
		c-23.05,6.1-46.228,12.974-69.466,20.617l-440.83,1645.204h63.951l156.453-583.921L1188.107,1685.943z"/>
	<path style="opacity:0.3;fill-rule:evenodd;clip-rule:evenodd;fill:#0049E7;" d="M903.424,2509.742l-225.613,842.021h63.951
		l156.453-583.921l64.521-240.795C942.628,2522.309,922.852,2516.569,903.424,2509.742"/>
	<path style="opacity:0.3;fill-rule:evenodd;clip-rule:evenodd;fill:#0049E7;" d="M1252.199,1670.924l-267.325,997.676h535.285
		h500.119c418.488,0,850.743-301.12,1035.604-697.393c-56.352-14.533-116.225-27.827-179.763-39.502
		c-393.553-72.297-590.706-10.468-738.221,2.863c-116.452,10.522-201.979-9.17-328.772-148.908
		C1693.403,1658.126,1482.982,1623.883,1252.199,1670.924"/>
	<path style="opacity:0.3;fill-rule:evenodd;clip-rule:evenodd;fill:#0049E7;" d="M1019.929,2537.767l-35.055,130.833h535.285
		h500.119c308.165,0,623.784-163.295,842.599-407.622c-142.265-70.3-362.154-100.738-696.307,8.168
		C1701.047,2420.872,1323.303,2580.367,1019.929,2537.767"/>
	<path style="opacity:0.3;fill-rule:evenodd;clip-rule:evenodd;fill:#0049E7;" d="M3112.536,1986.553
		c-189.394,414.231-639.285,740.068-1092.257,740.068h-442.671l-16.551,61.767h459.221c480.549,0,954.814-344.413,1151.982-783.991
		C3152.843,1998.301,3132.936,1992.349,3112.536,1986.553"/>
	<path style="opacity:0.3;fill-rule:evenodd;clip-rule:evenodd;fill:#0049E7;" d="M2914.322,2289.996
		c-227.462,259.3-559.904,436.625-894.044,436.625h-442.671l-16.551,61.767h459.221c354.28,0,705.124-187.218,944.056-461.735
		C2949.193,2314.057,2932.567,2301.727,2914.322,2289.996"/>
	<path style="opacity:0.2;fill-rule:evenodd;clip-rule:evenodd;fill:#FFFFFF;" d="M2000.517,1131.463
		c366.779,270.751,488.155,433.468,854.932,266.75c108.535-49.338,223.616-89.855,340.395-115.663
		c-42.643-301.053-282.094-514.532-626.188-514.532h-308.621c-199.994,0-403.53,77.58-574.341,204.138
		C1802.617,1014.095,1912.389,1066.403,2000.517,1131.463"/>
	<path style="opacity:0.2;fill-rule:evenodd;clip-rule:evenodd;fill:#FFFFFF;" d="M3107.158,941.745
		c81.919,96.752,128.424,210.358,145.609,329.438c20.296-3.615,40.623-6.767,60.95-9.407
		c-18.896-130.182-70.023-254.372-159.42-359.948c-146.631-173.173-360.978-253.597-584.641-253.597h-308.621
		c-256.125,0-510.061,108.737-711.16,279.657c23.668,6.845,47.339,14.07,70.87,21.695
		c184.99-147.057,412.153-239.585,640.29-239.585h308.621C2775.013,709.998,2972.356,782.536,3107.158,941.745"/>
</g>
</svg>
